# xmcd
# 
# Track frame offsets:
#     171
#     20833
#     39622
#     59129
#     92428
#     111980
#     135384
#     161271
#     188279
#     206947
# 
# Disc length: 3078
# 
# Revision: 8
# Processed by: cddbd v1.5.2PL0 Copyright (c) Steve Scherf et al.
# Submitted via: fre:ac v1.0.31
# 
DISCID=860c040a
DTITLE=The Weeknd - Trilogy: Echoes Of Silence [Component 3]
DYEAR=2012
DGENRE=R&B
TTITLE0=D.D.
TTITLE1=Montreal
TTITLE2=Outside
TTITLE3=XO/The Host
TTITLE4=Initiation
TTITLE5=Same Old Song
TTITLE6=The Fall
TTITLE7=Next
TTITLE8=Echoes Of Silence
TTITLE9=Till Dawn (Here Comes The Sun)
EXTD=
EXTT0=
EXTT1=
EXTT2=
EXTT3=
EXTT4=
EXTT5=
EXTT6=
EXTT7=
EXTT8=
EXTT9=
PLAYORDER=
